# Blender v2.78 (sub 0) OBJ File: 'костер_лоу.blend'
# www.blender.org
mtllib костер_лоу.mtl
o Cube.001_Cube.005
v -0.234347 -0.008621 -2.958727
v -0.234347 -0.008621 2.337094
v -1.671027 -0.008622 2.337094
v -1.671025 -0.008622 -2.958728
v -0.234346 1.333353 -2.958727
v -0.234347 1.333353 2.337095
v -1.671026 1.333353 2.337093
v -1.671026 1.333352 -2.958727
v -2.247007 -0.004404 2.091647
v -2.247007 1.078603 2.091647
v -2.907594 -0.004404 1.065926
v -2.907594 1.078604 1.065925
v 2.035526 -0.004403 -0.666402
v 2.035526 1.078604 -0.666402
v 1.374938 -0.004404 -1.692124
v 1.374939 1.078604 -1.692123
v -0.234347 1.078604 0.795448
v -0.234347 1.078604 -0.655707
v -0.234347 0.569623 0.795448
v -0.234347 -0.004404 -0.655707
v -0.234347 -0.004404 0.795448
v -1.671026 1.078604 1.720703
v -1.671026 0.932944 1.720702
v -1.671026 1.078604 0.269547
v -1.671026 -0.004404 1.720703
v -2.720808 -0.009473 -2.375586
v -2.720808 0.778682 -2.375586
v -2.049057 -0.009473 -2.544189
v -2.049057 0.778682 -2.544190
v -1.846114 -0.009473 1.109360
v -1.174364 -0.009473 0.940755
v -1.671026 -0.006112 -1.038040
v -1.671026 0.778682 0.269547
v -1.671026 0.778682 -1.038041
v -2.003205 0.778682 0.483479
v -2.003205 -0.004404 0.483478
v -1.671026 -0.004404 1.065414
v -1.846114 -0.004404 1.109359
v -1.671026 -0.008622 1.065414
v -1.671025 -0.008622 -1.038039
v -1.174364 -0.008621 0.940755
v -3.435422 -0.048166 -0.750816
v -3.801879 0.627461 -0.914878
v -3.140147 -0.048165 -1.410362
v -3.506604 0.627461 -1.574423
v -0.594306 1.801713 0.521136
v -0.960763 2.477340 0.357075
v -2.394790 0.778682 -1.076669
v -2.165517 0.778682 -0.182287
v -2.170913 0.778682 -0.184703
v -2.394790 0.437144 -1.076670
v -2.170913 0.775168 -0.184703
v -1.870242 0.778682 -0.841833
v -1.671026 0.908394 -0.752644
v -1.671026 1.333352 -0.752644
v -1.671026 1.100650 0.039094
v -1.671026 1.333353 0.039094
v -1.018357 1.333353 -0.460448
v -1.313632 1.333352 0.199098
v -0.116891 -0.063552 -2.014291
v -1.014122 2.776811 0.239288
v 0.123527 0.489933 -2.634579
v -0.773704 3.330297 -0.381000
v 0.627298 -0.063552 -1.725850
v -0.269934 2.776811 0.527728
v 0.867716 0.489933 -2.346138
v -0.029516 3.330297 -0.092559
v -0.779870 2.402864 -0.353679
v -0.898888 2.412015 -0.050146
v -0.819084 2.477339 0.040612
v -0.234346 1.197480 -1.730390
v -0.234347 1.114568 -0.980838
v -0.234347 0.308279 -1.719276
v -0.435241 2.052840 -0.199390
v -0.778317 2.030325 -0.352984
v -0.234346 1.333353 -1.732088
v -0.558154 1.333353 -0.905970
v -0.234347 1.333353 -0.780465
v 0.349673 1.078604 -1.031829
v 0.266506 1.078604 -0.819650
v 0.112749 1.078604 -0.879245
v 0.351434 0.809748 -1.032963
v 0.347346 -0.045036 1.479988
v 0.921187 -0.036894 1.013400
v -0.375191 1.615531 -0.552136
v 0.633512 0.522289 1.841834
v -0.662866 2.174714 0.276298
v 1.207353 0.530431 1.375245
v -0.017610 1.978031 -0.106034
v -0.018520 2.092988 -0.105147
v -0.044599 2.063471 -0.038244
v -0.290202 2.180002 -0.026713
v -0.234347 1.333353 -0.221105
v -0.234347 1.333353 0.788637
v -0.685510 2.129823 0.247666
v -0.734042 1.333353 0.174080
v -0.546081 1.801713 0.413419
v -0.386026 1.962103 -0.177356
v -0.349108 1.667241 -0.519155
v -0.638000 1.581007 -0.290164
v -0.676295 1.611259 -0.307308
v -0.880132 1.519567 -0.002342
v -0.234347 1.078604 0.178307
v -0.234347 1.078604 0.784191
v 0.397353 1.078604 0.388619
v -0.224666 0.684079 0.789213
v -0.228340 1.078604 0.791579
v 0.401573 0.625432 0.385901
v 0.046045 1.078604 -0.043441
vn 0.0000 -1.0000 0.0000
vn -0.0000 1.0000 -0.0000
vn 1.0000 0.0000 0.0000
vn -0.0000 0.0000 1.0000
vn -1.0000 0.0000 -0.0000
vn 0.0000 0.0000 -1.0000
vn -0.8407 -0.0000 0.5415
vn -0.5415 -0.0000 -0.8407
vn 0.8407 -0.0000 -0.5415
vn 0.5415 -0.0000 0.8407
vn -0.2434 -0.0000 -0.9699
vn 0.9699 -0.0000 -0.2434
vn 0.2434 -0.0000 0.9699
vn -0.9699 -0.0000 0.2434
vn -1.0000 -0.0002 0.0000
vn -0.7846 -0.5109 -0.3513
vn 0.4086 -0.0000 -0.9127
vn -0.4086 -0.0000 0.9127
vn 0.4663 -0.8597 0.2087
vn -0.9310 -0.0046 -0.3649
vn 0.2748 0.6494 -0.7091
vn 0.9310 0.0046 0.3649
vn -0.2748 -0.6494 0.7091
vn 0.2311 -0.7687 -0.5964
vn -0.2311 0.7687 0.5964
vn -0.4663 0.8597 -0.2087
vn -0.3914 -0.7759 -0.4949
vn 0.7758 0.0110 -0.6308
vn 0.3914 0.7759 0.4949
vn -0.7758 -0.0110 0.6308
vn 0.4949 -0.6308 0.5976
vn 0.7846 0.5109 0.3513
vn -0.4949 0.6308 -0.5976
usemtl None
s off
f 1//1 2//1 3//1 39//1 41//1 40//1 4//1
f 5//2 8//2 55//2 58//2 59//2 57//2 7//2 6//2 94//2 96//2 93//2 78//2 77//2 76//2
f 1//3 5//3 71//3 73//3 72//3 18//3 20//3 21//3 19//3 2//3
f 2//4 6//4 7//4 3//4
f 3//5 7//5 23//5 25//5 37//5 39//5
f 5//6 1//6 4//6 8//6
f 9//7 10//7 12//7 11//7
f 11//8 12//8 24//8 33//8 35//8 36//8
f 15//9 16//9 14//9 13//9
f 13//10 14//10 105//10 108//10 106//10 107//10 17//10 19//10 21//10
f 11//1 36//1 38//1 37//1 25//1 9//1
f 16//2 79//2 80//2 81//2 18//2 103//2 109//2 105//2 14//2
f 2//3 19//3 17//3 104//3 94//3 6//3
f 22//2 24//2 12//2 10//2
f 20//8 18//8 81//8 82//8 79//8 16//8 15//8
f 25//10 23//10 22//10 10//10 9//10
f 4//5 32//5 34//5 33//5 24//5 22//5 23//5 7//5 57//5 56//5 54//5 55//5 8//5
f 21//1 20//1 15//1 13//1
f 26//11 27//11 29//11 28//11
f 28//12 29//12 34//12 32//12 40//12 41//12 31//12
f 31//13 41//13 39//13 37//13 38//13 30//13
f 30//14 38//14 36//14 35//14 50//14 52//14 51//14 48//14 27//14 26//14
f 28//1 31//1 30//1 26//1
f 35//2 33//2 34//2 29//2 27//2 48//2 53//2 49//2 50//2
f 40//15 32//15 4//15
f 42//16 43//16 45//16 44//16
f 44//17 45//17 68//17 75//17 74//17 98//17 101//17 100//17 58//17 55//17 54//17 53//17 48//17 51//17
f 46//18 47//18 43//18 42//18 52//18 50//18 49//18 56//18 57//18 59//18
f 44//19 51//19 52//19 42//19
f 49//19 53//19 54//19 56//19
f 59//19 58//19 100//19 102//19 97//19 46//19
f 60//20 73//20 71//20 76//20 77//20 75//20 68//20 69//20 61//20 63//20 62//20
f 62//21 63//21 67//21 66//21
f 66//22 67//22 65//22 91//22 90//22 89//22 80//22 79//22 82//22 64//22
f 64//23 82//23 81//23 80//23 89//23 99//23 92//23 91//23 65//23 61//23 69//23 70//23 74//23 75//23 77//23 78//23 72//23 73//23 60//23
f 62//24 66//24 64//24 60//24
f 67//25 63//25 61//25 65//25
f 76//3 71//3 5//3
f 70//26 69//26 68//26 45//26 43//26 47//26
f 83//27 106//27 108//27 84//27
f 84//28 108//28 105//28 109//28 85//28 99//28 89//28 90//28 88//28
f 88//29 90//29 91//29 92//29 87//29 86//29
f 86//30 87//30 95//30 97//30 102//30 96//30 94//30 104//30 107//30 106//30 83//30
f 84//31 88//31 86//31 83//31
f 97//32 95//32 98//32 74//32 70//32 47//32 46//32
f 109//27 103//27 93//27 96//27 102//27 100//27 101//27 85//27
f 107//2 104//2 17//2
f 92//33 99//33 85//33 101//33 98//33 95//33 87//33
f 93//3 103//3 18//3 72//3 78//3
